<svg width="100" height="100" viewBox="0 0 100 100" fill="none" xmlns="http://www.w3.org/2000/svg">
<rect width="100" height="100" rx="20.8333" fill="white"/>
<path d="M75.7501 33.4973L77.6811 31.5663C80.8805 28.3669 86.0677 28.3669 89.2671 31.5663C92.4665 34.7657 92.4665 39.9529 89.2671 43.1523L87.3361 45.0833M75.7501 33.4973C75.7501 33.4973 75.9915 37.6007 79.6121 41.2213C83.2328 44.8419 87.3361 45.0833 87.3361 45.0833M75.7501 33.4973L57.9976 51.2499C56.7951 52.4523 56.1939 53.0535 55.6769 53.7164C55.0669 54.4984 54.544 55.3445 54.1174 56.2397C53.7557 56.9986 53.4868 57.8052 52.9491 59.4185L51.2274 64.5834L50.6704 66.2544M87.3361 45.0833L69.5835 62.8359C68.3811 64.0383 67.7799 64.6395 67.117 65.1565C66.335 65.7665 65.4889 66.2894 64.5937 66.716C63.8348 67.0777 63.0282 67.3466 61.415 67.8843L56.25 69.606L54.579 70.163M54.579 70.163L52.908 70.72C52.1141 70.9846 51.2389 70.778 50.6471 70.1863C50.0554 69.5945 49.8488 68.7193 50.1134 67.9254L50.6704 66.2544M54.579 70.163L50.6704 66.2544" stroke="#181818" stroke-width="6"/>
<path d="M33.3335 54.1667H43.7502" stroke="#181818" stroke-width="6" stroke-linecap="round"/>
<path d="M33.3335 37.5H60.4168" stroke="#181818" stroke-width="6" stroke-linecap="round"/>
<path d="M33.3335 70.8333H39.5835" stroke="#181818" stroke-width="6" stroke-linecap="round"/>
<path d="M82.6184 13.2148C77.7369 8.33325 69.8801 8.33325 54.1667 8.33325H45.8333C30.1198 8.33325 22.2631 8.33325 17.3816 13.2148C12.5 18.0964 12.5 25.9531 12.5 41.6666V58.3333C12.5 74.0467 12.5 81.9035 17.3816 86.785C22.2631 91.6666 30.1198 91.6666 45.8333 91.6666H54.1667C69.8801 91.6666 77.7369 91.6666 82.6184 86.785C86.548 82.8555 87.3143 76.9981 87.4638 66.6666" stroke="#181818" stroke-width="6" stroke-linecap="round"/>
</svg>
